M48
; DRILL file {KiCad 7.0.8-7.0.8~ubuntu22.04.1} date Mon 30 Oct 2023 09:17:13 PM MSK
; FORMAT={-:-/ absolute / inch / decimal}
; #@! TF.CreationDate,2023-10-30T21:17:13+03:00
; #@! TF.GenerationSoftware,Kicad,Pcbnew,7.0.8-7.0.8~ubuntu22.04.1
; #@! TF.FileFunction,Plated,1,2,PTH
FMAT,2
INCH
; #@! TA.AperFunction,Plated,PTH,ComponentDrill
T1C0.0394
; #@! TA.AperFunction,Plated,PTH,ComponentDrill
T2C0.0402
; #@! TA.AperFunction,Plated,PTH,ComponentDrill
T3C0.0591
%
G90
G05
T2
X5.4704Y-4.1785
X5.557Y-4.2285
X5.6032Y-3.9665
X5.6436Y-4.2785
X5.6532Y-3.8799
X5.7032Y-3.7933
X5.7302Y-4.3285
X5.8168Y-4.3785
X5.8204Y-3.5723
X5.9034Y-4.4285
X5.907Y-3.6223
X5.99Y-4.4785
X5.9936Y-3.6723
X6.0766Y-4.5285
X6.0802Y-3.7223
X6.1632Y-4.5785
X6.1668Y-3.7723
X6.2498Y-4.6285
X6.2534Y-3.8223
X6.3364Y-4.6785
X6.34Y-3.8723
X6.423Y-4.7285
X6.4266Y-3.9223
X6.5096Y-4.7785
X6.5132Y-3.9723
X6.5962Y-4.8285
X6.5998Y-4.0223
X6.6828Y-4.8785
X6.6864Y-4.0723
X6.7694Y-4.9285
X6.773Y-4.1223
X6.856Y-4.9785
X6.8596Y-4.1723
X6.9426Y-5.0285
X6.9462Y-4.2223
X7.0292Y-5.0785
X7.0328Y-4.2723
X7.1158Y-5.1285
X7.1194Y-4.3223
X7.206Y-4.3723
X7.2926Y-4.4223
X7.3792Y-4.4723
X7.4658Y-4.5223
T3
X4.3144Y-1.9897
X4.3144Y-2.7397
X4.3144Y-3.4897
X4.5644Y-2.0897
X4.5644Y-2.8397
X4.5644Y-3.5897
X4.8053Y-4.3982
X4.9718Y-4.6098
X5.0644Y-1.9897
X5.0644Y-2.7397
X5.0644Y-3.4897
X5.3144Y-2.0897
X5.3144Y-2.8397
X5.3144Y-3.5897
X5.4548Y-4.7732
X5.6213Y-4.9848
X5.8144Y-1.4346
X5.8144Y-2.1846
X5.8144Y-2.9346
X6.0644Y-1.5346
X6.0644Y-2.2846
X6.0644Y-3.0346
X6.5644Y-1.7121
X6.5644Y-2.4621
X6.5644Y-3.2121
X6.8144Y-1.8121
X6.8144Y-2.5621
X6.8144Y-3.3121
X7.3144Y-1.9897
X7.3144Y-2.7397
X7.3144Y-3.4897
X7.5644Y-2.0897
X7.5644Y-2.8397
X7.5644Y-3.5897
T1
G00X5.0049Y-1.6228
M15
G01X5.0246Y-1.6228
M16
G05
G00X5.0051Y-1.3772
M15
G01X5.0248Y-1.3772
M16
G05
G00X5.123Y-1.6228
M15
G01X5.1427Y-1.6228
M16
G05
G00X5.1232Y-1.3772
M15
G01X5.1429Y-1.3772
M16
G05
G00X5.2805Y-1.6228
M15
G01X5.3002Y-1.6228
M16
G05
G00X5.2807Y-1.3772
M15
G01X5.3004Y-1.3772
M16
G05
G00X5.3396Y-1.4535
M15
G01X5.3593Y-1.4535
M16
G05
G00X5.3398Y-1.5465
M15
G01X5.3594Y-1.5465
M16
G05
T0
M30
