M48
; DRILL file {KiCad 7.0.8-7.0.8~ubuntu22.04.1} date Mon 30 Oct 2023 09:17:13 PM MSK
; FORMAT={-:-/ absolute / inch / decimal}
; #@! TF.CreationDate,2023-10-30T21:17:13+03:00
; #@! TF.GenerationSoftware,Kicad,Pcbnew,7.0.8-7.0.8~ubuntu22.04.1
; #@! TF.FileFunction,NonPlated,1,2,NPTH
FMAT,2
INCH
; #@! TA.AperFunction,NonPlated,NPTH,ComponentDrill
T1C0.0472
; #@! TA.AperFunction,NonPlated,NPTH,ComponentDrill
T2C0.0591
; #@! TA.AperFunction,NonPlated,NPTH,ComponentDrill
T3C0.0689
; #@! TA.AperFunction,NonPlated,NPTH,ComponentDrill
T4C0.0709
; #@! TA.AperFunction,NonPlated,NPTH,ComponentDrill
T5C0.1575
%
G90
G05
T1
X4.9439Y-1.5381
X4.9441Y-1.4618
X5.2195Y-1.5381
X5.2197Y-1.4618
T2
X7.1354Y-4.8459
X7.2308Y-4.6805
T3
X4.2144Y-2.1897
X4.2144Y-2.9397
X4.2144Y-3.6897
X4.6144Y-2.1897
X4.6144Y-2.9397
X4.6144Y-3.6897
X4.6187Y-4.5214
X4.9644Y-2.1897
X4.9644Y-2.9397
X4.9644Y-3.6897
X4.9651Y-4.7214
X5.2682Y-4.8964
X5.3644Y-2.1897
X5.3644Y-2.9397
X5.3644Y-3.6897
X5.6146Y-5.0964
X5.7144Y-1.6346
X5.7144Y-2.3846
X5.7144Y-3.1346
X6.1144Y-1.6346
X6.1144Y-2.3846
X6.1144Y-3.1346
X6.4644Y-1.9121
X6.4644Y-2.6621
X6.4644Y-3.4121
X6.8644Y-1.9121
X6.8644Y-2.6621
X6.8644Y-3.4121
X7.2144Y-2.1897
X7.2144Y-2.9397
X7.2144Y-3.6897
X7.6144Y-2.1897
X7.6144Y-2.9397
X7.6144Y-3.6897
T4
X7.2328Y-4.9157
X7.34Y-4.7299
T5
X4.4144Y-2.1897
X4.4144Y-2.9397
X4.4144Y-3.6897
X4.7919Y-4.6214
X5.1644Y-2.1897
X5.1644Y-2.9397
X5.1644Y-3.6897
X5.4414Y-4.9964
X5.9144Y-1.6346
X5.9144Y-2.3846
X5.9144Y-3.1346
X6.6644Y-1.9121
X6.6644Y-2.6621
X6.6644Y-3.4121
X7.4144Y-2.1897
X7.4144Y-2.9397
X7.4144Y-3.6897
T0
M30
